/* XPM */
static char *result[] = {
/* columns rows colors chars-per-pixel */
"110 110 53 1 ",
"  c #35694C",
". c #3C6E4B",
"X c #3D724D",
"o c #326D50",
"O c #367151",
"+ c #3D7652",
"@ c #3C7A56",
"# c #3F7D58",
"$ c #41754D",
"% c #4C7D4D",
"& c #407750",
"* c #427C54",
"= c #407E58",
"- c #3F815B",
"; c #4E814E",
": c #52844E",
"> c #56884F",
", c #458157",
"< c #4B8556",
"1 c #46855A",
"2 c #49875A",
"3 c #47895E",
"4 c #4A8B5E",
"5 c #568A51",
"6 c #598D50",
"7 c #518F5D",
"8 c #4F905F",
"9 c #5C9254",
"0 c #56925A",
"q c #59975D",
"w c #5C9B5F",
"e c #61934E",
"r c #629552",
"t c #669A52",
"y c #6A9E51",
"u c #619E5D",
"i c #6CA254",
"p c #65A15C",
"a c #6BA55A",
"s c #6FA859",
"d c #71A653",
"f c #76AD56",
"g c #79AF55",
"h c #72AA58",
"j c #7CB255",
"k c #468F63",
"l c #4A8F61",
"z c #4D9262",
"x c #539561",
"c c #579860",
"v c #589860",
"b c #80B452",
"n c None",
/* pixels */
"nnnnnnnnnnn.=4xzl* nnnnnnnnnnnnnXXnnnnnXXnnnnnnnnnnnnnXXnnnnnnnnnnnnnnn.2zzz4.nnnnnnnnnnnnnX.nnnnnnXXnnnnnnnnn",
"nnnnnnnnnnn*44xzl3&nnnnnnnnnnnn*=&nnnnn*=nnnnnnnnnnnnnXXnnnnnnnnnnnnnn&*lzzzz*&nnnnnnnnnnnn*1&nnnn&=*nnnnnnnnn",
"XXnnnn++X.$2zzzzzz2&$$nnnnnnXXX,z4Xnn.*l4@XXXnnnnnXX.X*XnnX*$nnnnX+OX.*lxzzzzz,XXXnnnnnnX.Xkl1.nn.1z2XX+nnnnnn",
"z,Xnn*4z444zzzzzzxlll2*nn.n&,z4zxz4&.=zzzz8z=$n.n$=zl4l1X&1z4=nnX,zz444zzzzzzzl8z1&n.nn*4z4zzx1X$=zxx4ll*nn.X+",
"zz*&&2zzxzzzzzzzzzzzzz1&&&+,lxzzzzz2*4xzzzzz4*&@&&lzzzzz*1zzz4&&*4xxzxzzzzzzzzzzx4,@&&&2zxzzzz0==4xzzzzz1&&&&&",
"zzll4zzxzzzzzzzzzzzzzzll4zlzzzzzzzzl4zzzz,,zz44z4zzzzzxzlzzzzz444zzzzzzzzzzzzzzzzzlzl44zzzzzzzzllxzzzzzzzlzk=$",
"zzzxzzzzzzzzzzzzzzzzzzxzzxzzzzzzzzzxzzzz4&*4zzzxzxzzzzzzzzzzzzzxzzzzzzzzzzzzzzzzzzxzzzxzzzzzzzzzzzzzzzzzzzxz=.",
"zzzzzzzzzzzzzzzzzzzzzzzzzzzzzzzzzzzzzxl=&44&,zzzzzzzzzzzzzzzzzzzzzzzzzzzzzzzzzzzzzzzzzzzzzzzzzzzzzzzzzzzzzx4*.",
"zzzzzzzzzzzzzzzzzzzzzzzzzzzzlxlzzzzzzzz1*43&1zzzzzzzzzzzzzzzzzzzzzzzzzzzzzzzzzzzzzzzzzzzzzzzzzzzzzzzzzzzzzxl1*",
"zzzzzzzzzzzzzzzzzzzzzzzzzzzzzlxzzzzzzzzz4&&lzzzzzzzzzzzzzzzzzzzzzzzzzzzzzzzzzzzzzzzzzzzzzzzzzzzzzzzzzzzzzzzzzz",
"zzzzzzzzzzzzzzzzzzzzzzzzzzzzzzzzzzzzzzzxz12zzzzzzzzzzzzzzzzzzzzzzzzzzzzzzzzzzzzzzzzzzzzzzzzzzzzzzzzzzzzzzzzzzz",
"zzzzzzzzzzzzzzzzzzzzxlzzzzzzzzzzzzzzzzzzzzzzzzzzzzzzzzzzzzzzzzzzzzzzzzzzzzzzzzzzzzzzzzzzzzzzzzzzzzzzzzzzzzzzzz",
"zzzzzzzzzzzzzzzzzzzzzzlxzzzzzzzzzzzzzzzzzzzzzzzzzzlkzzzzzzzzzzzz8zzzzzzzzzzzzzzzzzzzzzzzzzzzzzzzzzzzzzzzzzzzzz",
"zzzzzzzzzzzzzzzzzzzzzzzzzzzzzzzzzzzzzzzzzzzzzzzzlzxvzzzzzzzzzzzxzzzzzzzzzzzzzzzzzzzzzzzzzzzzzzzzzzzzzzzzzzzzzz",
"zzzzzzzzzzzzzzzzzzzzzzzzzzzzzzzzzzzzzzzzzzzzzzzzkzahwzzzzzzzzzzzzzzzzzzzzzzzzzzzzzzzzzzzzzzzzzzzzzzzzzzzzzzzxz",
"zzzzzzzzzzzzzzzzzzzzzzzzzzzzzzzzzzzzzzzzzzzzzzzzxufjukzzzzzzzzzzzzzzzzzlzzzzzzzzzzzzzzzzzzzxzzzzzzzzzzzzzzzll2",
"zzzzzzzzzzzzzzzzzzzzzzzzzzzxlzzzzzzzzzzzzzzzlzkzpgjgvzzzzzzzzzzzzzzzzzzzzzzzzzzzzzzzzzzzzzzzzzzlzzzzzzzzzzzl=$",
"zzzzzzzzzzzzzzzzzzzzzzzzzzzzzzzzzzzzzzzzzzxpuzkzajbgukzzzzzzzzzzzzzzzzvpuzzzzzzzzzzzzzzzzzzzzzzxzzzzzzzzzzxk<=",
"zzzzzzzzzzzzzzzzzzzzzzzzzzzzzzzzzzzzzzzzzkujhxllpjjfvkzzzzzzzzzzzzzzzkwjsxkzzzzzzzzzzzzzzzzzzzzzzzzlzzzzzzzzxz",
"zzzzzzzzzzzzzzzzzzzzzzzzzzzzzzzzzzzzzzzzzkvjbh9@tjhvxzzzzzzzzzzzzzzzkkwgsxkzzzzzzzzzzzzzzzzzzzzzzzzxzzzzzzzzzz",
"zzzzzzzzzzzzzzzzzzzzzzzzzzzzzzzzzzzzzzzzzkcagby%rdvkzzzzzzzzzzzzzzzxvzvjsxkzzzzzzzzxzzzzzzzzzzzzxzzzzzzzzzzzlx",
"zzzzzxzzzzzzzzzzzzzzzzzzzzzzzzzzzzzzzzzzzz2*egbfr%2zzzzzzzzzzzzzzkxhhxvgszzzzzzzzzzlzzzzzzzzzzzzlzzzzzzzzzzzxl",
"zzzzzzzzzzzzxzzzzzlzlzzzzzzzzzzzzzzzzzzzzz4@<tii5@1zzzzzzzzzzzzzzkxghvvjhxlzzzzzzzzzlzzzzzzzzzxlzzzzzzzzzzzzzz",
"zzzzzzzzzzzzzzzzzzxlxzzzzzzzzzzzzzzxzzzzzzzz2$$+3zzzzzzzzzzzzzzzzzvfhxvgszkzzzzzzzzzxzzzzzzzzzlzzzzzzzzzzzzzzz",
"zzzzzzzzzzzzzzzzzzzzzzzzzzzzzzzlzzzzzzzzzzzxl==,kxxzzzzzzzzzzzzzzkxggxxuvxlzzzxzzzzzzzzzzzzxlzzzzzzzzzzzzzxl21",
"zzzzzzzzzzzzzzzzzzzzzzzzzzzzzzzxzzzzzzzzzzzzzzzxlzlzzzzzzzzzzzzzzkxhhvkkzzzzzzlzzzzzzzzzzzzzzzzzzzzzzzzzzzzl*.",
"zzzzzzzzzzzzzzzzzzzzzzzzxzzzzzzzzzzzzzzzzzzzzzzzzzzzzzzzzzxzzzzzzzxvvxlzzzzzzzzzzzzzzzzzzzzzzzzzzzzzzzzzzzxl*.",
"zzzzzzzzzzzzzzzzzzzzzzzzlzzzzzzzzzzzzzzzzzzzzzzzzzzzzzzzzzlzzzzzzzzzzzzzlxzzzzzzzzzzzzzzzzzzzzzzzzzzzzzzzzzl=.",
"zzzzzxzzzzzzzzzzzzxlzzzzzzzzzzzzzzzzzzzzzzzzzzxzzzzzzzzzzzzzzzzzxzzzzzzzzzzzzzzzzzzzzzzzzzzzzzzzzzzzzzzzzzzl*.",
"zzzzzzzzzzzzzzzzzzzzzzzzzzzzzzzzzzzzzzzzzzzzzzlzzzzzzzzzzzzzzzlxl42lzzzlzzzzzzzzzzzzzzlxzzzzzzzzzzzzzzzlzzxl1*",
"zzzzzzzzzzzzzzzzzzzzzzzzzzzzzzzzzzzzzzzzzzzzzzzzzzzzzzzzzzzzzzzz8*$lzzzzzzzzzzzzzzzzzzzzzzzzzzzzzzzzzzzxzzzzzl",
"zzzzzzzzzzzzzzzzzzzzzzzzzzzzzzzzzzzzzzzzzzzzzzzzzzzzzzzzzzzzzzz4=11=1zxzzzzzzzzzzzzzzzzzzzzzzzzzzzzzzzzzzzzzxz",
"zzzzzzzzzzzzzzzzzzzzzzzzzzzzzzzzzzzzzzzzzzzzzzzzzzzzzzzzzzzzzzz,&28*&lzzzzzzzzzzzzzzzzzzzzzzzzxlzzzzzzzzzzzzzz",
"zzzlzzzzzzzzzzzzzzzzzzzzzzzzzzzzzzzzzzzzzzzzzzzzzzzzzzzzzzzzzzz44**14lzzzzzzzzzzzzzxzzzzzzzzzzzzzzzzzzzzzzzzzz",
"zzzxzzzzzzzzzzzzzzzzzzzzzzzzzzzzzzzzzzzzzzzzzzzzzzzzzzzzzzzzzzzxl=*lxzzzzzzzzzzzzzzzzzzzzzzzzzzzzzzzzzzzzzzzzz",
"zzzzzzzzzzzzzzzzlxzzzzzzzzzzzzzzzzzzzzzzzzzzzzzzzzzzzzzzzzzzzzzzxllzxzzzzzzzzzzzzzzzzzzzzzzzzzzzzzzzzzzzzzzzzz",
"zzzzzzzzzlzzzzzzzzzlzzzzzzzzzzzzzzzzzzzzzzzzzzzzzzzzzzzzzzzzzzzzzzzzzzzzzzzzzzzzzzzzzzzzzzzzzzzzzzzzzzzzzzzzzz",
"zzzzzzzzzxzzzzzzzzlxzzzzzzzzzzxlzzzzzzlxzzzzzzzz8zzzzzzzzzzzzzzzzzzzzzzzzzzzzzzzzzzzzzzzzzzzzzzzzzzzzzzzzzzzzz",
"zzzzzzzzzzzzzzzzzzzzzzzzxzzzzzzzzzzzzzzzzzzzzzzzzzzzzzlxpwzkzzzzzzzzzzzzzzzzzzzzzzzzzzzzzzzzzzzzzzzzzzzzzzzzzz",
"zzzzzzzzzzzzzzzzzzzzzzzzlzzzzzzzzzzzzzzzzzzzzzzzzzzzzzkwjfvzzzzzzzzzzzzzzzzzzzzzzzzzzzzzzzzzlxzzzzzzzzzzzzzzzz",
"zzzzzzlkzzzzzzzzzzzzzzxlzzzzzzzzzzzllzzzzzzzzzzzzzzzzzkwfjhpzzzzkzzzzzzzzzzzzzzzzzzzzzzzzzzzzzzzzzzzzzzzzzkzzz",
"zzzzzxwxzzzzzzzzzzzzzzzzzzzzzzzzzzzqvxzzzzzzzzzzzzzzzzkcfjjsxkzxvxzzzzzzzzzzzzzzzzzzzzzzzzzzzzzzzzzzzzzlzzxvxl",
"zzzzzuhpzlzzzzzzzzzzzzzzzzzzzzzzzkzpfukzzzzzzzzzzzzzzzkwfjjazkkpfulzzzzzzzlzzzzzzzzzzzzzzzzzzzzzzzzzzzzlkxahvk",
"zzzlkajszkkzzzzzzzzzzzzzzzzzzzzzzzzsjukkzzzzzzzzzzzzzzkqpfji14pjbuklzzzzzzxzzzzzzzzzzzzzzzzzzzzzzzzzzzvuxxhjuz",
"zzzzkpjpzlzxzzzlzzzzzzzzzzzzzzzzzkzaguzzzzzzzzzzzzzzzzzzzwjy+6jjfulkzzzzzzzzzzzzzzzzzzlzzzxlzzzzzzxzlzpjuzagwl",
"zzzkzpjpzvpvlzzxzzzzzzzzzzzzzzzzzzxpguzppxzzzzzzzzzzzzzzk86etgjd67lxzzzzzzzzzzzzzzzzzzxzzzzzzzzzzzlzkzajpxhj9=",
"zzzzzpgpxsgukzzzzzzzzzzzzzzzzzzzzzzsjwxhfwkzzzzzzzzzzzzzz3O6gjf6o3xzzzzzzzzzzzzzzzzlzzzzzzzzzzzzzzzzzlpguzaf: ",
"zzzzlajpzagukzzzzzzzzzzzzzzzzzzzzkzajwxhfwkzzzzzzzzzzzzzzz2<:::<lkzzzzzzzzzzzzzzzzlxzzzzzzzzzzzzzzzzkzajpzcv% ",
"zzzzzwhuzsgwzzzzzzzzzzzzzzzzzzzzzlzpswxhfqkzzzzzzzzzzzzzzzx3@O+1xzzzzzzzzzzzzzzzzzzzzzzzzzlzzzzzzzzzlzuhulkk,&",
"zzzzzxxzzsjwkzzzzzzzzzzzzzzzzzzzzzzxxzxfgwkzzzzzzzzzzzzzzzz88k3zzzzzzzzzzzzzzzzzzzzzzzzzzzzzzzzzzzzzzzxxxzzlzl",
"zzzzzlkkxuaqkzzzzzzzzzzzzzzzzzzzzzzzkkxppczzzxzzzzzzzzzzzzzzzxzzzzzzzzzzzzzzzzlxzzzzzzzzzzzzzzzzzzzzzzzkzzzzzz",
"zzzzzzzzzzzzzzzzzzzzzzzzzzzzzzzzzzzzzzzzzzzzzzzzzzzzzzzzzzzzzzzzzzzzzzzzzzzzzzzzzzzzzzzzzzzzzzzzzzzzzzzzzzzzzz",
"zzzzzzzzzzlzzzzzzzzzzzzzlllzzzzzzzzzzzzkzzzzzzzzzzzzzzzzzzzzzzzzzzzzzzzzzzzzzzzzzzzllkzzzzzzzxzzzzzzzzzzzzxz2=",
"zzzzzzzzzzzzzzzzzzzzzzzzxxxlzzzzzzzzzzzzzzzzzzzzzzzzzzzzzzzzzzzzzzzzzzzzzzzzzzzzzzzxxxzzzzzzzzzzzzzzzzzzzzzl=X",
"zzzzzzzzzzzzzzzzzzzzzzkzshxkzzzzzzzzzzzzzzzzzzzzzzzzzzzzzzzzzzzzzzzzzxzzzzzzzzzzzzkxhszkzzzzzzzzzzzzzxlzzzzz44",
"zzzzzzzzzzzzzzzzzzzzzzxwshuvzzzzzzzzzzzzzzzzzzzzzzzzzzzzzzzzzzzzzzzzzlzzzzzzzzzzzxxuhswxzlxzzzzzzzzzzzzzzzzzzx",
"zzzzzzzzzzzzzzzzzzzzlzafwxhhqk8zzzzzzzzzzzzzzzzzzzzzzzzzzzzzzzzzzzzxlzzzzzzzzzzzlxfhxugszlzzzzzzzzzzzzzzzzzzzz",
"zzzzzzzlzzzzzzzzzzzzzxuspuspxzzzzzzzzzzzzzzzzzzzzzzzzzzzzzzzzzzzzlzlzzzzzzzzzzzzzxpsupsuzzzzzzzzzzzzzzzzzzzzzz",
"zzzzzzzxzzzzzzzzzzzzzzkxhgvzzzzzzzzzzzzzzzzzzzzzzzzzzzzzzzzzzzzzzxzzzzzzzzzzzzzzzzkvghxkzzzzzzzzzzzzzzzzzzzzzx",
"zzzzzzzzzzzzzzzzzzzzzzkzuuxkzzzzzzzzzzzzzzzzzzzzzzzzzzzzzzzzzzzzzzzzzzzzzzzzzzzzzzkxuwzkzzzzzzzzzzzzzzzzzzzz1=",
"zzzzzzzzzzzzzzzzzzzzzzzzzkzzzzzzzzzzzzzzzzzzzzzzzzzzzzzzzzzzzzzzzzzzzzzzzzzzzzzzzzzlklzzzzzzzzzzzzzzzzzzzzzl&.",
"zzzzzzzzzzzzzzzzzzzzzzzzzlzzzzzzzzzzzzzzzzzzzzzzzzzzzzzzzzzzzzzzzzzzzzzzzzxzzzzzzzzxzzzzzzzzzzzzzzzzzzzzzzxl=.",
"zzzzzzzzzzzzzzzzzzzzzzzzzzzzzzzzzzzzzzzzzzzzzzzzzzzzzzzzzzzzzzzzzzzzzzzzzzlzzzzzzzzzzzzzzzzzzzzzzzzzzzzzzzzz*.",
"zzzzzzzzzzzzzzzzzzzzzzzzzzzzzzzzzzzzzzzzzzzzxzzzzzzzzzzzzzzzzzzzzzzzzzzzzzzzzzzzzzzzzzzzzzzzzzzzzzzzzzzzzzx4*.",
"zzzzkkzzzzzzzzzzzzzzzzzlzzzzzzzzzzzzzzzzzzzl2xzzzzzzzzzzzzzzzzzzzzzzzzzzzzzlzzxzzzzzzzzzzzzzzzxzzzzzzzzzzzxl2=",
"xzzxzzzzzxzzzzzzzzzzzzzxzzzzzzzzzzzzzzzzzz2&=lzzzzzzzzzzzzzzzzzzzzzzzzzzzzzzzzzzzzzzzzzzzzzzzzzzzzzzzzzzzzxlzz",
"lzlvssavkkzlkklzzzzzzzzzzzzzzzzzxzzzzzzzl*=22*3zzzzzzzzzzzzzzzxzzzzzzzzzzzzlzzzzzzzzzzzzzzzzzzzzzzzzzzzzzzlzzz",
"zlzwhbgsxzzxxcxxzzzzzzzzzzzzzzzzzzzzzzzzl**l2&=zzzzzzzzzzzzzzzlzzzzzzzzzzzzzzzzzzzzzzzzzzlzzzzzzzzzzzzzzzzzzzz",
"zzlxvsjjhxzphgsxkzzzzzzzzzzzzzzzzzzzzzzz8l2&=4lxzzzzzzzzzzzzzlzzzzzzzzzkkxzzzzzzzzzzzzzzzzzzzkkkkzxzzzzzzzzzzz",
"zzzkkvsjbpwfbgaxkzzzzzzzzzzzzzzzzlzzzzzzlxl*=xzzzzzzzzzzzzzzzxzzzzzzlzxvczzzzzzzzzzzzzzzzzzzzcwwvzkzzlzzzzzzzz",
"zzzzzzxajjgjguzzzzzzzzzzzzzzzzzzzzzzzzzzxzll8zzzzzzzzzxzzzzzzzzzzzzkkkuhsxkzzzxlzzzlzzzzzzzkxsbjsxkzzkkkzzzzzz",
"zzzzzzk0tfjdrlkzzzzzzzzzzzzlxzzzzzzzzzzzlzxzxlzzzzzzzzzzzzzzzzzzxlxuuzughxkzzzzzzzzzzzxzzzzzxwsbgsvzxuspvzzl41",
"zzzzzxz#$yg>olzzzzzzzzzzzzzzzzzzzzzzzzzzzzzxzzlzzzzzzzzzzlzzzzzzzkxhgxvjsxkzzzzzzzzzzzzzzzzzzkcsjjsxvgbgpkzl*.",
"zzzzzzz# :6<kzzlzzzzzzzzzzzzzzzzzzlzzzzzzzzzzzzzzzzzzzzzzzzzzzzzzkvfgxvjsxkzzzzzzzzzzzzzzzzzzkzvajjshbhuvzzz42",
"zzzzzzz1&O+lxzzzzzlzzzzzzzzzzzzzzzzzzzzxzzzzzzzzzzzzzzzzzzzzzzzzxkxhhxvhazlzzzzzzzzzzzzzzzzzzzzk0agbjfulkzzzzz",
"zzzzzzzl424lzzzzzzxlzzlxzzzzxzzzzzzzzzzzzzzzzzzzzzzzzzzzzzzzzzzzlkvggcxvxxzzzzzzzzzzzzzzzzzzzzzz7<egd:<lzzzzzz",
"zzzzzzzxzxzzzzzzzzzxzzzzzzzzlzzzzzzzzzzzzzzzzzzzlzzzzzzzzzzzzzzzzkxpsvkkkxzzzzzzzzzzzzzzzzzzzzzzlo%yr&-zzzzzzz",
"zzzzzzzzzzzzzzzzzzzzzzzzzzzzzzzzzzzzzzzzzzzzzzzzzkzzzzzzzzzzzzzzzxzxxlzzxlzzzzzzzzzzzzzzzzzzzzzz4&.$1kzzzzzzzz",
"zzzzzzzzzzzzzzzzzzzzzzzzzzzzzzzzzzzzzzlzzzzzzzkzvpvkzxzzzxlzzzzzzzzkklzzlzzzzzzzzzzzzzzzzzzzzzzzl2=#1zxzzzzzzz",
"zzzzzzzzzzzzzzzzzzzzzzzzzzzzzzzzzzzxzzzzzzzzzzzzajpzkzzzzzzzzzzzzzzzxzzzzzzzzzzzzzzzzzzzzzzzzzzzzzzzzzzzzzzzzz",
"zzzzzzzzzzzzzzzxzzzzzzzzzzzzzzzzzzzzzzzzzzzzklwsawaaczzzzzzzzzzzzzzzzzzzzzzzzzzzzzzzzzzzzzzzzzzzzzxzzzzzzzzz3*",
"xzzzzzzzzzzzzzzzzzzzzzzzzzzzzzzxzzzzxzzzzzzzzkpgaxafwkzzzzzzzzzzzzzzzzzzzzzzzzzzzzzzzzzzzzzzzzzzzzzzzzzzzzxl*.",
"zzzzzlzzzzzzzzzzzzzzzlzzzzzzzzzzzzzzzzzzzzzzzzxcahacxlzzzzzzzzzzzzzzzzzzzzzzzzzzzzzzzzzzzzzzzzzzzzzlzzzzzzzl*.",
"zzzzzzzzzzzzzzzzzzlzzzzzzzzzzzzzzlzzzzzzlzzzxlkkuhvkkxzzzzzzzzzzzzzxzzzzzzzxzzzzzzzzzzzzzzzzz8zzzzzzzzzzzzzl*.",
"zzzzzzzzzzzzzzzzzzzzzzzzzzzzzzzzzzzzzzzzzzzzzzzzxxxzzzzzxzzzzzzzzlzzzzzzzzzzzzzzzzzzzzzzzzzzzzzzzzzzxzzzzzzl*.",
"zzzzzzzzzlzzzzzzzzzzzzzzzzzzzlzzzzzzzzxzzzzzxzzzklkzzzzzzzzzzzzzzl=lzzzzzzzzzzzzzzzzxzzzzzzzzzzzzzzzzzzzzzxl21",
"zzzzzzzzzzzzzlzzzzzzzzzzzzzzzzzzzzzzzzzzzzzzzzzzzzxzzzzzzzzzzzzzl*$4xzzzzzzzzzzzzzzzzzzzzzzzzzzzzzzzzzzzzzzzlz",
"zzzzzzzxzzzzzzzzzzzzzxzzzzzzzzzzzzzzzzzzzzzzzzzzzzzzzzzzzlzzlxz1*24*=lzzzzzzzzzzzzzzzzzzzzzzzzzzzzzzzzzzzzzzxz",
"zzzzzzzzxzzzzzzzzzzzzzzzzzzzzzzzzzzzzzzzzzzzzzzzzzzzzzzzzzzzzzz1$ll*&lzzzzzzzzzzzzzzzzzzzzzzzzzzzzzzzzzzzzzzzz",
"zzzzzzzzzzzzzzzzzzzzzzzxzzlzzzzzzzzzzzzzzzzzzzzzzzzzzzzzzzzzzzzz2**28lzzzzzzzzzzzzzzzzzzzxzzzzzzzzzzzzzzzzzzzz",
"zzlzzzzzzzzzzzzzzzzzzzzzzxzzzzzzzzzzzzlzzzlzzzlxzzzzzzzzzzzzzzzz8=*zxzzzzzzzzzzzz8zzzzzzzzzzzzzzzzz8zzzzzzzzzz",
"zzzzzzzzzzzzzzzzzzzzzzzzzzzzzzzzzzzzzzzzzzzzzzzzzlzzzzzzzzzzzzzzzz8zzzzzzzzzzzz8zzzzzzzzzzzzzzzzzzzzzzzzzzzzzz",
"zzzzzzzzzzlzzzzzzzzzzzzzzzzzzzzzzxzzzzzzxzzzzzzzzzzzzzzlklxzzzzzzzlxzzzzzzzzzzzzzzzzzzzzzzzzzzzzzzzzzzzzzzzzzz",
"zzzzzzzzzzzzzzzzlzzzzlzzzlxzzzzzzzzzzzzzzzzzzzzzzzzzzzzxzxzzzzzzzlxzzzzzzzzzzzzzzzzzzzzzzzzzzzzzzzzzzzzzzzzzzz",
"zzzzzzzzzzzzzzzzzzzzzzzzzzzzzzzzzzzzzlzzzzzzzzzzzzzzzzkcaplkzzzzzzzzzzzzzzzzzzzzzzzzzzzzzzzzzzzzzzzzzzzzzzzzzz",
"zzzzzzzzzzzzzzzzxzzzzzzzzzzzzzzzzzzzzzzzzzzzzzzzzzzzzzzvggvxzzzzzzzzzzzzzz8zzzzzzzzzzzzzzzzzzzzzzzzzzzzzzzzzzz",
"zzzzzzzzzzzzzzzzzzzzzzzzzxzzzzzzzzzlkzxzzzzzzzzzzzzzzzkvhjhpzkxkkzzzzzzxzlzzzzzzzzzzzzzzzzzzzzzzzzzzzzzzzzzzzz",
"zzzzzzzzzzzzzzzzzzzzzzzzzzzzzzzzzlxvwxlzzzzzzzzzzzzzzzzvgbbhzklvwczzzzzzzzzzzzzzzzzxzzzzzzzzzzzzzzzzzzzzzzzzzz",
"zzzzzzzzzzzzzzzzzzzzzzzzzzzzzzzzzzzpgukzzzzzzzzzzzzzzzkvgjjaxkzafukzzzzzzzzzzzzzzzzzzzzzzzzzzzzzzzzzzzzzzzzlzz",
"zzzzzzzzzzzzz8zzzzzzzzzzzzzzzzzzzkxabukkkzzzzzzzzzzzzzkxuhja14pgjukzzzzzzzzzzzzzzzzzzzzzzzzzzzzzzzzzzzzzzzzxxz",
"zzzzzzzzzzzzzzzzzzzzzzzzzzzzzzzzzkzajukzxzzzxzzzzzzzzzzzkvft$ejbfwkxlzzzzzzzzzzzzzzzzzzzzzzzzzzzzzzzzzzzzzzzzz",
"zzzzzzzzzzzzzzzzzzzzzzzzzzzzzzzzxkzaguxppvkzlzzzzzzzzzzzz75eygji58zlzzzzzzzzzzzzzzzzzzzzzzzzzzzzzzzzzzzzzzxl1&",
"zzzzzzzzzzzzzzzzzzzzzzzzzzzzzzzzzkxagwxhgvkzzzzzzzzzzzzzz3O5fjd6Ollxzzzzzzzzzzzzzzzzzzzzzzzzzzzzzzzzzzzzzzzz&.",
"zzzzzzzzzzzzzzzzzzzzzzzzzzzzzzzzzkzajuxhgvkzzzzzzzzzzzzzzzl2%%%<ll8lzzzzzzzlxzzzzzzzzzzzzzzzzzzzzzzxzzzlzzzl*.",
"zzzzzzzzzzzxzzzzzzzzzzzzzzzzzzzzzzzpscxhgvkxlzzzzzzzzzzzzxzl@+@3zzzzzzzzzzzzzzzzzzzzzxzzzzzzzzzzzzzzzzzzzzxz1*",
"zzxzzzzzx8lxzzzzzzzzzzzzzzzzzzzzzzzzzzxhjvkzxzzzzzzzzzzzzzzzzlzzzzzzzzzzzzzzzzzzzzxzzzzzzzzzzzzzzzzzzzzzzzzzzl",
"ll4lxzzzlzzlllzzzzxzz444llzzzzzzzzzzzkxppckl2llzzzl4zzxzzz444llzzxzzzzz4lxxzzzxz4444llzzzzzzzzzzzzzzzxz4l4lzzz",
"X..=zzlxzzz*&lzzzzzl1X.XX&4zzzzzzzzzzzlzlzl&..1lx8*$lzzzz4$.X.X1zzzzzx2$=lzlzzzk*.XXX=lzzzzzzzzzzzzzzz2X.+2zzz",
"nnn&=1*2z4=nn*lll,,1*nnnnn*2=2zzzzzz82**=1=nnn*=2**n*1==3=nnnnn*3=1ll4*n&=lxl*1=&nnnn&=1=4zzzzzzz1**1,&nnn*21*",
"nnnn.&$1z2$nn.184XX$nnnnnnX&.*4xzzzzl*..$&$nnnn$=.nn$*$$&.nnnnnX+X&481.nn.2l1.&$nnnnnn$+.1zxzzzx4+.X&XnnnnX&XX"
};
