/* XPM */
static char *d83e79e714b848aa8418336b9fc3f1d85xzc1yW8hMiHLvR3[] = {
/* columns rows colors chars-per-pixel */
"128 128 88 1 ",
"  c #010101",
". c #080707",
"X c #080807",
"o c #070708",
"O c #080708",
"+ c #0A0A0A",
"@ c #131313",
"# c #1F1F1F",
"$ c #201F1F",
"% c #182312",
"& c #1F201F",
"* c #20201F",
"= c #1F1F20",
"- c #201F20",
"; c #1F2020",
": c #222222",
"> c #282727",
", c #262C24",
"< c #282B27",
"1 c #272728",
"2 c #2B2B2A",
"3 c #273023",
"4 c #2A3425",
"5 c #2D3A25",
"6 c #2D332C",
"7 c #2E3A2A",
"8 c #30322F",
"9 c #313C2D",
"0 c #302F30",
"q c #2F3030",
"w c #333333",
"e c #383737",
"r c #343A31",
"t c #393E36",
"y c #373738",
"u c #3A3A3A",
"i c #2C4227",
"p c #2F4928",
"a c #344B26",
"s c #34442D",
"d c #38462F",
"f c #354C2C",
"g c #394C2F",
"h c #375226",
"j c #395626",
"k c #3B5A27",
"l c #35512A",
"z c #3C552C",
"x c #375A2B",
"c c #3D5E29",
"v c #354331",
"b c #3B4535",
"n c #364D30",
"m c #3C4A34",
"M c #3D4239",
"N c #3F4B38",
"B c #375030",
"V c #3D5333",
"C c #3E5C35",
"Z c #3F5739",
"A c #3E632A",
"S c #3F6A2A",
"D c #3F6532",
"F c #3F6C32",
"G c #404E37",
"H c #41443E",
"J c #414C3A",
"K c #405534",
"L c #415C35",
"P c #415539",
"I c #425A3A",
"U c #40672A",
"Y c #406D2B",
"T c #42732B",
"R c #437C2C",
"E c #426534",
"W c #436B34",
"Q c #45613A",
"! c #456A38",
"~ c #447234",
"^ c #467C32",
"/ c #487E36",
"( c #3F4040",
") c #414140",
"_ c #464B41",
"` c #465E40",
"' c #45842D",
"] c #468031",
/* pixels */
"                                                                                                                                ",
"                                                                                                                                ",
"    O++@@##@+++++++++++++O++++O++++++++++++++++++O++++++++++++++++O+++++++++++O+O+++OO+++++++++++++++O+@++++@O+++++@@@#%%@+O    ",
"    @#######:#:#:##:#=:#:#:;:#::***#*#:=:##:***$:#:&:##:#*:$*#:=:#::***#*#:=:#::#::#:#*#*##;####=#:#######=####&:##:###:*&&#O   ",
"    @-#$#$#$&###=#=#$##$&##&##;##*#$#$&&=###&###&##&=#&#$$$$##&#####&##$*##$##;####==#==:###=#==##&&*:##===#$#$$--##*#&######   ",
"    @-###&&##$#*#$##-#--#$#####$#&##&##*#$#&&##$##$##$#=$*$$&$#$###&*#&###&####$######=-##-##*==&;#&####=:###=#$#-#&$##&#####   ",
"    @-=#$##$#$##&#$##-#-#$*&&&#;*&&&##**&&&&#&&*$#*$##::**--***$;&&&#&&$##*$##:::>>::>:-####::::::::::::::::::--;*&&#&&&#####   ",
"    @##*##&#&##*#=#,sKKKE!W!!!!!!W!!!!~~!!!!!!!W!!W!!!!EE!!WW!!~!!!!!!!W!!W!!!!EEEEEEEEq*#&:2MMMMMbVZCCZCCCCILLLZCCCkxx9>*###   ",
"    @;#;##;#&#&#**:5kccSR''''''''''''''''''''''''''''''''''''''''''''''''''''''''''''''e:#&:rzkkkkAT''''R''''''''''''''E6:&##   ",
"    @#$#$##$&&##**5hckUR'''''''''''''''''''''''''''''''''''''''''''''''''''''''''''''''e;&&>MkcAccAR'''''''''''''''''''~v:#&@o  ",
"    @$$#&#&#&&**5jcccUTR'''''''''''''''''''''''''''''''''''''''''''''''''''''''''''''''t:#&>McccccSR''''''''''''''''''']c>&&#O  ",
"    @;#=#$#=&&5jcAkcSY'''''''''''''''''''''''''''''''''''''''''''''''''''''''''''''''''m>;&>bkccccSR''''''''''''''''''''D,&&#   ",
"    @:&#=##*:5hkcccAT''''''''''''''''''''''''''''''''''''''''''''''''''''''''''''''''''m>#;>dkccccSR''''''''''''''''''''E3$##X  ",
"    @=#$#$&&3kAkcccSR''''''''''''''''''''''''''''''''''''''''''''''''''''''''''''''''''V>=&>dcccccS'''''''''''''''''''''E3*##   ",
"    @$##;##*4kAccccY'''''''''''''''''''''''''''''''''''''''''''''''''''''''''''''''''''V1&&1MkccccS'''''''''''''''''''''S3:#*O  ",
"    @##=#$;*5kccccAT'''''''''''''''''''''''''''''''''''''''''''''''''''''''''''''''''''V1;;>tkcccAS'''''''''''''''''''''E4*##o  ",
"    @#$#****5cccccSR'''''''''''''''''''''''''''''''''''''''''''''''''''''''''''''''''''C2--:tzcccAF'''''''''''''''''''''E,&&#   ",
"    @##;****hccccAY''''''''''''''''''''''''''''''''''''''''''''''''''''''''''''''''''''L2==>tkcccAT'''''''''''''''''''''D3&##   ",
"    @###*&*5cccccAR''''''''''''''''''''''''''''''''''''''''''''''''''''''''''''''''''''P2:=:tkcAcAT'''''''''''''''''''''D3&#:   ",
"    @#$#&&*5cccccAR''''''''''''''''''''''''''''''''''''''''''''''''''''''''''''''''''''P2:=>tkcccAR'''''''''''''''''''''D3&&*   ",
"    @--;&&:scccAcS'''''''''''''''''''''''''''''''''''''''''''''''''''''''''''''''''''''P2:=:rkcccAR'''''''''''''''''''''D3&$&   ",
"    @*##&&:gcccccSR''''''''''''''''''''''''''''''''''''''''''''''''''''''''''''''''''''P2=#>tkccAS''''''''''''''''''''''D,&#&   ",
"    @*#*&&>mccAccAY''''''''''''''''''''''''''''''''''''''''''''''''''''''''''''''''''''L2:#>tkcAcYR'''''''''''''''''''''D3&#:   ",
"    @####*:mccccccS''''''''''''''''''''''''''''''''''''''''''''''''''''''''''''''''''''P2##>tkcccY''''''''''''''''''''''D3;#:   ",
"    @-#&;#>mccccccAT'''''''''''''''''''''''''''''''''''''''''''''''''''''''''''''''''''P2:$>bzcccY''''''''''''''''''''''D3&&#   ",
"    @:=##$:9kccccccS'''''''''''''''''''''''''''''''''''''''''''''''''''''''''''''''''''I2:#:tkccAT''''''''''''''''''''''S3&&#   ",
"    @##*##:6zccccccSR''''''''''''''''''''''''''''''''''''''''''''''''''''''''''''''''''I2#$:tkAccT''''''''''''''''''''''D,&&:   ",
"    @-#####<gcccccAkSTRR'''''''''''''''''''''''''''''''''''''''''''''''''''''''''''''''P2$-:tkcccAT'''''''''''''''''''''D,&&:   ",
"    @#=####>akccccAcccccASTR'''''''''''''''''''''''''''''''''''''''''''''''''''''''''''P2==:tkcccAT'''''''''''''''''''''D3&##   ",
"    @:&#$#$:5kcccccccAcccAkAASYYTR'''''''''''''''''''''''''''''''''''''''''''''''''''''V>#-:tccccUR'''''''''''''''''''''D,&##   ",
"    @$#=$#$:8KcAcccccccccccAccAcccAcASSSSSS'RS'SS'RRSR''RSRRTRRR'RTRRRRRRSRRRRRSRRRRRRSu>##:tkcccUR'''''''''''''''''''''D3&#:   ",
"    @#&#$$$*4zkccccccccccccccccccccccccAAcAAAcAckAAAAccAccccccccAAccccccccAckAccccccAczw:##:tccccY''''''''''''''''''''''S3&#:   ",
"    @-=#*##*2mccccccccccAcccccccccAcccccccccccAccccccccccAcccccccccccccccAccAccckUkUUkJ2:$$:tccccY''''''''''''''''''''''~3&&#   ",
"    @##=#=#:>djjcccccccccccccccccccccccAccccccccccccAcccccccccAccccccccccccccccckjjjzJM2$$$*tkccAY''''''''''''''''''''''Y,###   ",
"    @*#$#=##:emzzccccAcccAcccccccccccccccccccccccAcccccccAccccccccccAcccccccckzzJJH_(uw:$$$$rUzcAT''''''''''''''''''''''W,&&:   ",
"    @#;#*##$:8uHJzckckkcckckcccccckjjkjjjjkjjjjzVzzzjjjjjjjjjkkjkjkjkkkjKKVmnmtee()(02::$$$$5UUkAT''''''''''''''''''''''D,##*   ",
"    @:#=##:#:>26eu)(((((MHu)))((M(uuuuuuuuuuuuuuuuuuuuuueeuueuuueuuuuuye8w0881:>0wew>:####$*5UUUST''''''''''''''''''''''D,##&   ",
"    @#&#####&&---:::::;;:$::::-:**:::::::::::::>::::::::::::::-:*::;-::#*$$*==::>22::&##$##:5kzkAR''''''''''''''''''''''S,#:#   ",
"    @#&$##-##=###==#====########$$####=#--#####$####-#*#&&&#######&&##-###$$##=::::::=#&###*5UzUAT''''''''''''''''''''''E3##:   ",
"    @$##=###$##$#*#&#==;###-##-#$$:#=###--:--:::::-::-*:****--:#:;#&:&##$#$$#===::**--##$&*:sUkkcT''''''''''''''''''''''F,#=:   ",
"    @####*=#$::26wwvBnlnnlgnnBlllBnn7>:*-:2wwwwywwewwwwwwewwwwwwww88w80w0wq22>:::><::***##$:mAkUAY''''''''''''''''''''''D3##&   ",
"    @$#####&#:8bzzcT^]]]]]]]]]]']R^^I8:*::tgzzzghzzzczCczczACzcEczLCLULcDACckNNbnzLN2**$&##:gczUcY''''''''''''''''''''''S,#&#   ",
"    @:##=#&#:6mkccSS'''']''''''']''RQw:*#>bzccccccAY]''''''''''''''''''''''''''''']Rv>:*###,gckkcS''''''''''''''''''''''F,&&:   ",
"    @####$#->tzccASR''''''''''''''''Eb2*#>tkccccckkT''''''''''''''''''''''''''''''''~62>###:gccUcY''''''''''''''''''''''D3&&&   ",
"    @###$#$:<gkcccAR''''''''''''''''YK8*$>MkccckVmmW'''''''''''''''''''''''''''''''']Zu2$$$:dUkkASR'''''''''''''''''''''W,=#&   ",
"    @####$$:6zccccAF''''''''''''''''YK8*#:MkcckKu26nF^'''''''''''''''''''''''''''''''~J0$$$:bkUUcUR'''''''''''''''''''''S,#&#   ",
"    @##:##*<bcccccST''''''''''''''''YK8*$:Mkcczt1;;>pD/''''''''''''''''''''''''''''''Rze*$$:gUcccST'''''''''''''''''''''D3$#:   ",
"    @####$*8gcccccS'''''''''''''''''TK8:*:Mkckm0:&&;:6W''''''''''''''''''''''''''''''RAe$$$:gzcccSR'''''''''''''''''''''F,#=:   ",
"    @=-#$#>tzcccccYR''''''''''''''''TV2:=:Mkcze:;#;:1s~'''''''''''''''''''''''''''''''U9$$$>mUkckSR'''''''''''''''''''''F3#&#   ",
"    @:#&#:2bkcccccS'''''''''''''''''SM1:=:Mkcmw:#:1rZW''''''''''''''''''''''''''''''''T9$$$*gccccST'''''''''''''''''''''F,#&#   ",
"    @#=#*:8zcccAcAYR''''''''''''''''C>:-=>bkcNw:#:v~F'''''''''''''''''''''''''''''''''T5$$$*mccccAR'''''''''''''''''''''W,&##X  ",
"    @##**:rzccccccYR''''''''''''''''V>-#-:MkcJw:*>V^''''''''''''''''''''''''''''''''''T5$$$,gccccAR'''''''''''''''''''''F,&&#   ",
"    @###$:rzcccccAS''''''''''''''']RB:&&#>tzkJw*;2VR''''''''''''''''''''''''''''''''']Y5$##:gccccAT]''''''''''''''''''''W,###   ",
"    @###$:rzcccccAT''''''''''''''''/n:#&#>bkcze>:6C'''''''''''''''''''''''''''''''''']T5###,mccccSR'''''''''''''''''''''S,=##   ",
"    @###$:9kcccAcAT''''''''''''''''^f:=##:MkckHwqCR'''''''''''''''''''''''''''''''''''Y5$#$:gcccAT''''''''''''''''''''''F3&##X  ",
"    @#=#$>rkccccAAR''''''''''''''''^n:#&#>MkccjzZ^''''''''''''''''''''''''''''''''''''Y5###:gcccAR''''''''''''''''''''''W3&##   ",
"    @####:9zcccccAR''''''''''''''''^g:;&;:MkccccS'''''''''''''''''''''''''''''''']''''T5###,gcccAR''''''''''''''''''''''F3&&#   ",
"    @####:rzcccccAT''''''''''''''']/n:&&;>MkcccAS'''''''''''''''''''''''''''''''''''''Y5$##:gcccST''''''''''''''''''''''F3&##   ",
"    @###$:rzAccccSR''''''''''''''''^n>##&>MzcccAY'''''''''''''''''''''''''''''''''''''T4###:mccccY''''''''''''''''''''''W3;##O  ",
"   X@###$:9LcccccSR''''''''''''''']^n:#;&>bjccccT'''''''''''''''''''''''''''''''''''''T5$#$:gccccUR'''''''''''''''''''''Y3;=#   ",
"   .@$##$:rLAccccSR''''''''''''''''^n1###:tkcccAT'''''''''''''''''''''''''''''''''''''Y5#$#:mccccAR'''''''''''''''''''''W,&##   ",
"    @###$>rzcccccSR''''''''''''''']^n>&#=>MkccccR'''''''''''''''''''''''''''''''''''''T5&##,gcccccT'''''''''''''''''''''F3&##   ",
"    @####:rzccccASR''''''''''''''''/m1;&#:MkcccAR'''''''''''''''''''''''''''''''''''''Y5*##:mccccAT'''''''''''''^^R'''''~3###O  ",
"    @####:rzcccAcS'''''''''''''''''^V:;&;>MkccAAR'''''''''''''''''''''''''''''''''''''T5;*#>mccccAT''''''''''''D7BT'''''W3:##   ",
"    @###$:9KccAccS'''''''''''''''''Rn,&#$>MjcccA'''''''''''''''''''''''''''''''''']'''T5:&#>gkcccST'''''''''''Fx47F'''''S3*&&   ",
"    @#$#$*9kcccccSR'''''''''''''''''V>#=*:MkcccA''''''''''''''''''''''''''''''''''''''Te&#&>dccccAR''''''''''''x27F'''''F3;;#   ",
"   .@##$$:9KcccccS'''''''''''''''''FV>&#:>MjcccA''''''''''''''''''''''''''''''''''''''Fe:&&>dkcccUT''''''''''']FvnF'''''F3;;#X  ",
"    @@##$>8UcccccS''''''''''''''''''B>##-:bjcccA''''''''''''''''''''''''''''''''''''''Ye:&&>fkccccY'''''''''''''~^F''''RF5;;#X  ",
"    @###$:9LkccccS''''''''''''''''''V:;&::MzccccR'''''''''''''''''''''''''''''''''''''Sy:&&2bcccccUR''''''''''''''''''''~3=#@O  ",
"    @###$*8UUccccS'''''''''''''''''RV:&&#>MkAccAY'''''''''''''''''''''''''''''''''''''Tu:&&>dkcccccT'''''''''''''''''''RS3;##   ",
"    @#$$**rKcccccSR''''''''''''''''RV,##*:MkccccT'''''''''''''''''''''''''''''''''''''St:&:2bcccccUY''''''''''FF^^''''''~3###X  ",
"   .@$$$**9KcccccSR''''''''''''''''RV:$#*>MkccccU'''''''''''''''''''''''''''''''''''''Su:&#<dkcccccYR''''''''^ZBD^''''''~4###X  ",
"   .@###$:rUKkcccY'''''''''''''''''Rh,=##>bkcccAU'''''''''''''''''''''''''''''''''''''St:$$<dkcccccUYR'''''']D96C^'''''RF4:=#o  ",
"    @&#&$:9KcckUAT''''''''''''''''''l,#=*>tkccccU'''''''''''''''''''''''''''''''''''''Yu:$:<dccccccccYR''''RFv17DR''''''~3;=#   ",
"    @###$:9kcccccT''''''''''''''''''Z1;&$:MkcccccR''''''''''''''''''''''''''''''''''''Tt>$*<dkcccccccAT''''RC4:vW]''''''W4==#X  ",
"    @##*$:rKccccAT''''''''''''''''''E6;#*:MkcccccT''''''''''''''''''''''''''''''''''''St:#*<dcccccccccUYR''~n11n~''''''RS4;=#X  ",
"    @###$:rKkcccAY''''''''''''''''''WM>#$:MkcckUUT''''''''''''''''''''''''''''''''''''Su>#:<dcccccAccccUYTREy2>vD'R'R'RSg<&#@X  ",
"    @###*:rUAAccAT''''''''''''''''''Sn2$$>MkUzUkkYRR''''''''''''''''''''''''''''''''''Su:##2bccccAcccccckUTIu4>rETTRRTSkg<&##X  ",
"    @##&*:9kcccckT''''''''''''''''''TK6-$:HkkkUzcUUU''''''''''''''''''''''''''''''''''St:#:2HkcccccccccckmMeq1:qmzcAAcckg2###O  ",
"    @#$#**9cccAkAT''''''''''''''''''TK2:$:tkkUkUkkkUYR''''''''''''''''''''''''''''''''Yu:#-2HkccccccccccGu2:::>wnkccAcckd<###o  ",
"    @####:9LccccAT''''''''''''''''''YK8:#:MccccccccccUYR''''''''''''''''''''''''''''''Yu>#:2HkAcccccccczb2::128Mzcccccckb<*$#O  ",
"    @##=::rCccccAT''''''''''''''''''TK8*#:bkcccccccccccUYRR'''''''''''''''''''''''''''Yu:##2bkccAccccczbw>>wuuGzcccAccckH2$##   ",
"    @####:rcccccAT''''''''''''''''''YK6*#;MccAcccckUcccAzUYTTR''''''R'''''R'''R''''''Rcb2;=2HkccccccckNy2:2MKzzcccccAcckJ2:##O  ",
"    @#$;#:rzccccAY''''''''''''''''''TL2*#:McccccczUkcccckUkUcUTT''RTTRRTTRTRRRYRRTTRRUcmu>:2HkccccAczMw>:>rmkccccccccccLH2:$#   ",
"    @:$#$>8KcAccAT''''''''''''''''''TK6*#:MccccczkUzccccUzUzccUzcccAccAccccccccccccLkckzu2:2dcccccczMe>:=:enkcckccccccAzH2=##   ",
"    @:#=$*9KccccAT''''''''''''''''''Tc2*#$MAccccUkkUcccccckUcckUccckccccccAccccAcckzH_JHe<:2dccckzJt2>&#=:2eHzkUccccccczH2;##   ",
"    @###$*rUccccAY''''''''''''''''''Yk<*#$MzCzckkUzcckkkkkkkkkkkkkjAAkcckkkkkkczzbtewee02:*>tJJJbu0::=####->2tbNGNGJNNGMt1###O  ",
"    @###*:9kAcccAY''''''''''''''''''Tk2*##2eer5579e6557555555555555545545555978e2222221>::&:22022::*#=#=###=:2w0w00080002:###O  ",
"    @###$:rLUzkUAY''''''''''''''''''YL2*#$###:###:####&###;#=###&####$#-##-#&##:*::::-::=#$##&##$$#-#-##;##=:#:::-::=::;-##:#   ",
"    @#$$$:9kkUUkcS''''''''''''''''''Yg,*#########&#####$;$#$#$##&&#&=#&##&;####;$$##==--###=#$$##$#=###*##*###$$####=#===##$#   ",
"    @###$:rzkzzkcSR'''''''''''''''''Ya**##;#####-##&=#&##$&#&###*####&:####$&&*::::>>>::$::####*$-####=#######=$######==#-###O  ",
"    @##$$:rLUUkUcS''''''''''''''''''Ta*#$##:=:*###&;#$#=###=#$#####*###::::::>>28weew22122ww<>:::::>:>>>>>>21<1121122:;=###;#   ",
"    @###$:rjkUkKcSR'''''''''''''''''Ya:*$*22q2wtPJJby9777447sgggfgzgVIQQIQQQQQQQIQ``PPZIQWYT!!!!!!!WEW!~WEW~~W~!W~W~WD4;#####X  ",
"    @###$$rKUkckcS''''''''''''''''''Ta:*$:eGVKKKccccA~///^^^''''''''''''''''''''''''//R''''''''''''''''''''''''''''']~7;#####   ",
"    @$$$$:8UUkcccS''''''''''''''''''Sf:#$:bkccccccccS''''']''''''''''''''''''''''''''''''''''''''''''''''''''''''''''~d:#####O  ",
"   o@$$$$:8UcccccY''''''''''''''''''Tm:#::MkcccccccST''''''''''''''''''''''''''''''''''''''''''''''''''''''''''''''''^l:#####O  ",
"    @:-#$:rKkcUzcUR'''''''''''''''''Ta:**:tkcccccccUR''''''''''''''''''''''''''''''''''''''''''''''''''''''''''''''''FD,&&##@X  ",
"    @:#$$*rUcckUcYR'''''''''''''''''Yf:$**tkcAcccAYT''''''''''''''''''''''''''''''''''''''''''''''''''''''''''''''''''D;&&=##X  ",
"    @#;#*>9KUUkkcY''''''''''''''''''TK2$&*MccccccY''''''''''''''''''''''''''''''''''''''''''''''''''''''''''''''''''''D3&#;&#+  ",
"    @##$**8zkkUzcYR'''''''''''''''''YL6$&*McccccAY'''''''''''''''''''''''''''''''''''''''''''''''''''''''''''''''''']]F3&&###O  ",
"   X@###$:9UcccccSR'''''''''''''''''YL2##:bcccccAT''''''''''''''''''''''''''''''''''''''''''''''''''''''''''''''''''''F3&=&#@+  ",
"    @###*:rLcccccSR'''''''''''''''''TK8:**MccccAcT''''''''''''''''''''''''''''''''''''''''''''''''''''''''''''''''''']F4*####   ",
"    @##&$*8UcccAcSR'''''''''''''''''YK8$#:MkcccccT''''''''''''''''''''''''''''''''''''''''''''''''''''''''''''''''''''F7:&&&#O  ",
"    @###$>8ccccccAR'''''''''''''''''TK8:$:McccccUR''''''''''''''''''''''''''''''''''''''''''''''''''''''''''''''''''''Fi&#&:@O  ",
"    @###&:rzcccckAT'''''''''''''''''TK8:$:bcAcccUR''''''''''''''''''''''''''''''''''''''''''''''''''''''''''''''''''''Fi:&##@O  ",
"    +####:rzccccAAR'''''''''''''''''YK8*$*MkkccckR''''''''''''''''''''''''''''''''''''''''''''''''''''''''''''''''''']Fp*&#&#O  ",
"   O@###*:rLAcccccAR''''''''''''''''Tz8*$:HcAcccUR''''''''''''''''''''''''''''''''''''''''''''''''''''''''''''''''''''FB,#&##O  ",
"   X@###$:9ccccccccT''''''''''''''''YL8*$:bjcccccR''''''''''''''''''''''''''''''''''''''''''''''''''''''''''''''''''''^x,&###O  ",
"   X@###$:rLccccccASR'''''''''''''''TK8$$:MkccccUY''''''''''''''''''''''''''''''''''''''''''''''''''''''''''''''''''''^x,&##@+  ",
"   O@###::9kccccccAAR'''''''''''''''YV8:$*McccAccUR'''''''''''''''''''''''''''''''''''''''''''''''''''''''''''''''''''RD4&###   ",
"    @###$:rLcccccAccAT''''''''''''''TV8*$:MccccAcAYR''''''''''''''''''''''''''''''''''''''''''''''''''''''''''''''''''R~i:###O  ",
"    @###$:rzcccAckccAT''''''''''''''YK8*#:MkcccccccY'''''''''''''''''''''''''''''''''''''''''''''''''''''''''''''''''''^B>###O  ",
"   X@###*:rzccAcccckcY''''''''''''''TK8-$:MkccccUkcAT''''''''''''''''''''''''''''''''''''''''''''''''''''''''''''''''''Rm<#&#O  ",
"   O+###**9cccccAccAccYR''''''''''''TKw*$:MkcccckcccUT''''''''''''''''''''''''''''''''''''''''''''''''']'''''''''FF'RTTUb>-##   ",
"    @###*:5kcccccccccccYRRRRR'''''''YK8:$:McccccccccUUR''''''''''''''''''''''''''''''''''''''''''R''']RTTRTYYUAAAASAkUUke:###+  ",
"    @###&:5ccccccccccccAYYYTSTTTTTRTYK2*$:MccAccccccccUTRTTTR''''''''''''''''''''''''''''''RRRRTTYUYUUkUccccccAcccAAzUkzt>*##   ",
"    @###&:5cccccccUccccccccckAcccccccK2&#:bccccccccAccckcccccAAARYUYTYYTTYTTRTTYYRTTYcSSUUccccccccccUkUUccAccccccccAcccLt:###   ",
"    @###&*2NaaaaaaaaamHfaaahaaaaaaaamH<##:MccccccccccccAccAcccccAAcckUUcUkUUUkkUccccAcccckcccccccccckkzkccccccccAkccccckt:###   ",
"   O@##&##:::::#***::::::::*:***::::::###-bcckccUkkkKkUkzUcckccccccckUzzkkUkccUzkccccckccccccAcckkcckUckckcccccccccccccKt:###o  ",
"   X@###$&#&####****$$$$$$******#&*#######wNNNNbtGdGbbbGdbdbNbbbbbdbbmdGbGbbmbGbmmNbmNNNJNNNmmNNGGGGGbGNGGbmbNNNmmNNmmmGw:###X  ",
"    @&;#&###$########&##$#################:>1122>2222222222222222222222222222222<22221>1222:21>21112222222222222221>21>>::#&#   ",
"    @:#&##&##&###########$######################$$$$$$$$&&:*::##::&#;&&#$$$$$==-################$$$-$#=#=$:#$-$#########&&&:#   ",
"    @#=#############&########*#####&#########$##$##$**$$:#&&########&&##$##$###=################$##-#-##*##*$##########*&##@    ",
"    @@###@######@############@##################$##@#@##@#####@####@######@$@######################@#@##@#####@########&###+    ",
"     OO+OO+OOOO OOOOoOOOOOOOOOOOOOOO+OO  XOO ++OOOXXXOOOOOOOOOOO OOOOOO+OOOOOOOOoOOOOoXX OOO +O++OOOoOOOOOO++OOO OOO +OO.XO     ",
"                                                                                                                                ",
"                                                                                                                                ",
"                                                                                                                                "
};
